<svg xmlns="http://www.w3.org/2000/svg" viewBox="0 0 288 63.9" class="title-bar__logo" data-reactid="10"><style data-reactid="11">.st0{fill:#e72347}</style><path class="st0" d="M56.1 0c-17.7 0-32 14.3-32 32S38.4 64 56 64c17.7-.1 32-14.4 32-32C88 14.3 73.7 0 56.1 0zm0 40c-4.4 0-8-3.6-8-8s3.6-8 8-8 8 3.6 8 8-3.6 8-8 8zM0 32c0-4.4 3.6-8 8-8s8 3.6 8 8-3.6 8-8 8-8-3.6-8-8" data-reactid="12"></path><path d="M164.1 25.8c4.7 0 8.4 3.5 8.4 8.4 0 .3 0 .9-.1 1.2 0 .5-.5.8-.9.8h-11.7c0 2.2 1.9 4.2 4.5 4.2 1.8 0 3.1-.7 3.9-1.3.4-.4.9-.4 1.2 0l1.5 2.1c.3.4.4.8-.1 1.2-1.6 1.3-3.8 2.5-6.8 2.5-5.4 0-9.2-4.3-9.2-9.5.1-5.2 3.9-9.6 9.3-9.6zm3.4 7.3c-.1-1.8-1.5-3.2-3.5-3.2-2.2 0-3.6 1.3-3.9 3.2h7.4zm44.1-14.3h-18.5c-.4 0-.7.4-.7.7v3.2c0 .4.3.7.7.7h6.7v20.2c0 .4.4.7.7.7h3.7c.4 0 .7-.4.7-.7v-20h6.7c.4 0 .7-.4.7-.7v-3.2c0-.5-.3-.9-.7-.9zm27.9 7c-1.8 0-3.6.4-4.5.8v-6.9c0-.4-.4-.9-.9-.9H231c-.4 0-.9.4-.9.9v23.9c0 .5.4.9.9.9h1.9c.5 0 .9-.4.9-.9v-1.4s2.1 2.7 6.1 2.7c5 0 8.6-4.3 8.6-9.5-.2-5.4-3.6-9.6-9-9.6zm-.4 14.6c-2.4 0-3.6-1.5-4-2.5v-6.5s1.5-1 3.8-1c3 0 4.5 2.4 4.5 5 0 2.5-1.5 5-4.3 5zm30.8-14.6c4.7 0 8.4 3.5 8.4 8.4 0 .3 0 .9-.1 1.2 0 .5-.5.8-.9.8h-11.7c0 2.2 1.9 4.2 4.5 4.2 1.8 0 3.1-.7 3.9-1.3.4-.4.9-.4 1.2 0l1.5 2.1c.3.4.4.8-.1 1.2-1.6 1.3-3.8 2.5-6.8 2.5-5.4 0-9.2-4.3-9.2-9.5.1-5.2 3.9-9.6 9.3-9.6zm3.4 7.3c-.1-1.8-1.5-3.2-3.5-3.2-2.2 0-3.6 1.3-3.9 3.2h7.4zm-130-7.3c-3.7 0-5.8 2.6-5.9 2.7V27c0-.5-.4-.9-.9-.9h-1.9c-.5 0-.9.4-.9.9v24c0 .4.4.9.9.9h3.2c.4 0 .9-.4.9-.9v-6.9c.8.3 2.6.7 4.4.7 5.4 0 9-4.2 9-9.5-.1-5.4-3.8-9.5-8.8-9.5zm-.9 14.6c-2.3 0-3.8-1-3.8-1v-6.5c.4-1 1.7-2.5 4-2.5 2.8 0 4.3 2.5 4.3 5s-1.5 5-4.5 5zm43.4-14.6c-3.5 0-5.2 1.9-5.9 2.6V27c0-.5-.4-.9-.9-.9h-2c-.4 0-.9.4-.9.9v16.5c0 .5.4.9.9.9h2.9c.9 0 1.1-.2 1.1-.9V33.2c.4-1.3 1.6-2.8 3.9-2.8 2.2 0 3.2 1.5 3.2 3.8v9.4c0 .5.4.9.9.9h3.2c.4 0 .9-.4.9-.9v-9.4c0-4.4-1.5-8.4-7.3-8.4zm33.1 0c-3 0-5.8.7-6.2.9-.4.1-.7.4-.6 1.1l.4 2.1c.1.6.4 1 1 .8 1.1-.3 3.5-.7 5.1-.7 1.9 0 2.6 1.1 2.5 3.4 0 0-1.7-.5-3.5-.5-4.6 0-7.3 2.5-7.3 5.7 0 3.9 2.5 6.2 6.1 6.2 2.8 0 4.7-1.3 5.7-2.3v1c0 .5.4.9.9.9h1.7c.5 0 .9-.4.9-.9v-9.8c.1-4.9-1-7.9-6.7-7.9zm2.1 13.5c-.2.7-1.7 1.9-3.3 1.9-1.7 0-2.6-1-2.6-2.6s1.1-2.6 3.2-2.6c1.5 0 2.7.6 2.7.6v2.7zM117 18.8c-7.2 0-13 5.9-13 13.1 0 7.3 5.7 13.1 13 13.1s13.1-5.7 13.1-13.1c0-7.2-5.9-13.1-13.1-13.1zm0 5.1c4.3 0 8 3.7 8 8 0 4.4-3.6 8-8 8s-8-3.6-8-8 3.6-8 8-8zm140.5 20.6c.5 0 .9-.4.9-.9v-3.2c0-.5-.4-.9-.9-.9h-.1c-.4 0-.8-.4-.8-.8V19.8c0-.4-.4-.9-.9-.9h-3.2c-.4 0-.9.4-.9.9v21.6c0 1.6 1.6 3.1 3.1 3.1h2.8zm23.5-15c0-2.2 1.6-3.7 3.5-3.7s3.5 1.5 3.5 3.7-1.6 3.7-3.5 3.7c-2 0-3.5-1.5-3.5-3.7zm6.3 0c0-1.8-1.2-3-2.8-3-1.6 0-2.8 1.3-2.8 3 0 1.8 1.2 3 2.8 3 1.5 0 2.8-1.2 2.8-3zm-4.2-1.9h1.4c.8 0 1.5.3 1.5 1.2 0 .4-.3.9-.7 1l.9 1.6h-.9l-.7-1.3h-.8v1.3h-.8v-3.8zm1.3 1.9c.5 0 .8-.2.8-.6 0-.4-.2-.6-.8-.6h-.5v1.3h.5z" data-reactid="13"></path></svg>
